<svg width="50" height="50" viewBox="0 0 50 50" fill="none" xmlns="http://www.w3.org/2000/svg">
<path d="M49.2487 18.0328H26.266C25.7735 18.0328 25.4452 18.3607 25.4452 18.8525V24.3443L23.3931 23.8525L21.1769 21.6393C23.6394 19.3443 23.8035 14.5082 23.8035 13.1148C26.8405 13.1148 28.9746 12.2951 29.7955 10.8197C30.1238 10.1639 30.37 9.09836 29.4671 7.70492C28.5642 6.39344 27.4151 5.7377 25.8556 5.7377C25.7735 5.7377 22.9006 5.7377 22.9006 5.7377C22.6544 4.26229 21.6694 1.14754 17.8116 0.245902C16.9908 0.0819672 15.8417 0 15.5954 0C7.05898 0 5.74568 4.09836 5.74568 6.55738V10.6557C5.74568 11.2295 5.99192 11.8852 6.48441 12.377C6.07401 12.8689 5.74568 13.6885 5.74568 14.7541C5.74568 16.8033 7.14106 17.7049 8.37228 17.9508C8.78268 19.1803 9.35725 20.082 9.93182 20.8197L6.89482 23.8525C6.23817 24.5902 7.05898 25.3279 7.05898 25.3279L3.52949 28.8525C3.20117 29.2623 0 32.541 0 35.2459C0 35.4098 -7.95018e-08 35.4918 0.0820811 35.5738L4.18614 43.7705C4.26822 44.0164 4.51446 44.0984 4.67863 44.1803C4.76071 44.1803 5.49944 44.4262 6.56649 44.4262C6.56649 44.5082 6.48441 49.0984 6.48441 49.0984C6.48441 49.5902 6.81274 49.918 7.30522 49.918C7.79771 49.918 8.12603 49.5902 8.12603 49.0984V46.8033C9.35725 48.2787 11.3272 49.918 13.8717 49.918C16.4162 49.918 21.0949 48.2787 25.1989 46.8033C25.9376 46.5574 26.5943 46.3115 27.2509 46.0656C27.4151 45.9836 27.5793 45.9836 27.8255 45.9016V49.1803C27.8255 49.6721 28.1538 50 28.6463 50C29.1388 50 29.4671 49.6721 29.4671 49.1803V45.4918C30.9446 45.1639 32.34 45 33.5712 45.082H39.3169C40.7123 45.082 42.6001 44.5902 43.1747 43.1148C43.3389 42.7049 43.4209 42.2951 43.4209 41.8033H49.1666C49.6591 41.8033 49.9874 41.4754 49.9874 40.9836V18.8525C50.0695 18.3607 49.7412 18.0328 49.2487 18.0328ZM40.2198 19.6721V24.0984L38.0857 23.0328C38.0036 22.9508 37.9215 22.9508 37.7573 22.9508C37.5932 22.9508 37.5111 22.9508 37.429 23.0328L35.2949 24.0984V19.6721H40.2198ZM16.2521 24.1803C16.17 24.0164 15.7596 23.7705 15.7596 23.7705C16.7446 23.7705 17.5654 23.6066 18.3862 23.3607L18.0579 24.3443L17.237 26.4754C17.237 26.4754 16.3342 24.1803 16.2521 24.1803ZM20.274 23.0328L21.9978 24.7541L21.1769 26.3115L19.7816 24.4262L20.274 23.0328ZM21.7515 7.37705C21.0128 7.95082 20.3561 8.68852 19.8636 9.34426C18.4683 11.3934 17.237 11.4754 17.237 11.4754H12.8867C13.2151 11.1475 13.5434 10.7377 13.7896 10.3279C14.7746 8.85246 16.5804 7.37705 18.0579 7.37705H21.7515ZM28.0718 8.68852C28.4822 9.2623 28.5642 9.7541 28.318 10.082C27.9897 10.7377 26.5943 11.4754 23.8035 11.4754H23.7215C23.5573 10 23.3111 8.93443 23.1469 8.36066C24.0498 7.78688 24.9527 7.37705 25.8556 7.37705C26.7585 7.37705 27.4972 7.78689 28.0718 8.68852ZM7.3873 6.55738C7.3873 3.60656 9.76766 2.37705 12.4763 1.88525C11.081 3.36066 10.6706 5.2459 10.6706 6.55738C10.6706 7.04918 10.9989 7.37705 11.4914 7.37705C11.9018 7.37705 12.3122 7.04918 12.3122 6.55738C12.3122 6.06557 12.4763 2.13115 16.4983 1.72131C20.0278 2.04918 21.0128 4.5082 21.259 5.7377H18.0579C15.8417 5.7377 13.6255 7.54098 12.4763 9.34426C11.081 11.3934 9.84974 11.4754 9.84974 11.4754H8.20812C7.55147 11.4754 7.3873 11.0656 7.3873 10.6557V6.55738ZM9.02893 16.3934C8.78268 16.3934 7.3873 16.3115 7.3873 14.7541C7.3873 13.2787 8.04395 13.1148 8.20812 13.1148H17.237C17.4833 13.1148 19.3712 13.0328 21.1769 10.3279C21.3411 10.082 21.5053 9.83607 21.7515 9.59016C21.9157 10.3279 22.1619 11.5574 22.1619 13.1967C22.1619 13.2787 22.4902 17.7869 20.1099 20.4098C19.0428 21.5574 17.4833 22.1311 15.5954 22.1311C15.5133 22.1311 11.2451 22.0492 9.84974 16.9672C9.68558 16.6393 9.35725 16.3934 9.02893 16.3934ZM10.7526 22.377L14.3642 24.7541L12.148 27.541L8.53644 24.5902L10.7526 22.377ZM1.64162 35.082C1.80579 33.3607 3.85781 30.9016 4.67863 30.082L8.2902 26.4754L11.7376 29.3443C11.9018 29.5082 12.0659 29.5082 12.2301 29.5082H12.3122C12.5584 29.5082 12.7226 29.3443 12.8867 29.1803L15.2671 26.1475L16.4162 28.9344C16.5804 29.2623 16.8266 29.4262 17.155 29.4262C17.4833 29.4262 17.8116 29.2623 17.8937 28.9344L18.9607 26.2295L20.5203 28.3607C20.6845 28.6066 20.9307 28.6885 21.259 28.6885C21.5053 28.6885 21.7515 28.5246 21.9157 28.2787L23.229 25.5738L25.281 26.0656V39.0984C24.0498 39.5082 22.5723 40 21.0128 40.4918C19.7816 40.9016 18.5503 41.3115 17.4012 41.7213C16.0058 42.2131 14.3642 41.6393 13.6255 40.3279L10.4243 34.8361C10.1781 34.4262 9.68558 34.3443 9.27517 34.5902C8.86477 34.8361 8.78268 35.3279 9.02893 35.7377L11.3272 39.5082C10.0139 43.3607 6.48441 43.0328 5.41736 42.7869L1.64162 35.082ZM41.6972 42.459C41.451 43.1148 40.3019 43.4426 39.399 43.4426H33.7354C31.0267 43.2787 28.2359 44.0984 26.8405 44.5902C26.1839 44.8361 25.4452 45.082 24.7885 45.3279C20.9307 46.6393 16.2521 48.3607 13.9538 48.3607C11.081 48.3607 9.02893 45.4098 8.37228 44.3443C9.76766 44.0164 11.3272 43.2787 12.4763 41.3115C13.3792 42.7049 14.9388 43.5246 16.5804 43.5246C17.0729 43.5246 17.5654 43.4426 18.0579 43.2787C19.1249 42.9508 20.3561 42.541 21.6694 42.0492C25.281 40.8197 29.7134 39.3443 30.8625 39.3443H36.6082C36.8544 39.3443 37.3469 39.5082 37.429 40.1639H35.2949C34.8024 40.1639 34.4741 40.4918 34.4741 40.9836C34.4741 41.4754 34.8024 41.8033 35.2949 41.8033C35.2949 41.8033 41.5331 41.8852 41.8614 41.8852C41.8614 42.0492 41.7793 42.2951 41.6972 42.459ZM48.4279 40.1639H39.0706C38.9886 38.3607 37.5932 37.7049 36.6082 37.7049H30.8625C30.1238 37.7049 28.8926 38.0328 27.0868 38.5246V19.6721H33.6533V25.4098C33.6533 25.6557 33.8174 25.9836 34.0637 26.1475C34.3099 26.3115 34.6383 26.3115 34.8845 26.1475L37.8394 24.6721L40.7943 26.1475C40.7943 26.2295 40.8764 26.2295 41.0406 26.2295C41.2047 26.2295 41.3689 26.2295 41.451 26.1475C41.6972 25.9836 41.8614 25.7377 41.8614 25.4098V19.6721H48.4279V40.1639Z" fill="#b0ffd4"/>
<path d="M33.6533 34.4262H30.37C29.8775 34.4262 29.5492 34.7541 29.5492 35.2459C29.5492 35.7377 29.8775 36.0656 30.37 36.0656H33.6533C34.1458 36.0656 34.4741 35.7377 34.4741 35.2459C34.4741 34.7541 34.1458 34.4262 33.6533 34.4262Z" fill="#b0ffd4"/>
<path d="M30.37 33.6066H32.0117C32.5041 33.6066 32.8325 33.2787 32.8325 32.7869C32.8325 32.2951 32.5041 31.9672 32.0117 31.9672H30.37C29.8775 31.9672 29.5492 32.2951 29.5492 32.7869C29.5492 33.2787 29.8775 33.6066 30.37 33.6066Z" fill="#b0ffd4"/>
</svg>
