<svg width="256" height="256" viewBox="0 0 256 256" fill="none" xmlns="http://www.w3.org/2000/svg">
<path d="M112.194 154.074H112.86C112.86 154.992 113.542 155.555 114.639 155.555C115.839 155.555 116.58 155.022 116.58 154.148C116.58 153.451 116.239 153.096 115.32 152.858L114.12 152.547C112.905 152.236 112.327 151.554 112.327 150.68C112.327 149.495 113.305 148.709 114.772 148.709C116.239 148.709 117.158 149.495 117.202 150.784H116.535C116.491 149.865 115.839 149.332 114.772 149.332C113.631 149.332 113.009 149.806 113.009 150.68C113.009 151.288 113.424 151.717 114.283 151.94L115.469 152.251C116.713 152.577 117.262 153.155 117.262 154.148C117.262 155.363 116.224 156.178 114.668 156.178C113.157 156.178 112.194 155.363 112.194 154.074ZM120.475 152.444C120.475 150.295 121.972 148.709 124.002 148.709C126.032 148.709 127.529 150.295 127.529 152.444C127.529 154.592 126.032 156.178 124.002 156.178C121.972 156.178 120.475 154.592 120.475 152.444ZM121.172 152.444C121.172 154.266 122.343 155.555 124.002 155.555C125.662 155.555 126.833 154.266 126.833 152.444C126.833 150.621 125.662 149.332 124.002 149.332C122.343 149.332 121.172 150.621 121.172 152.444ZM131.91 156H131.229V145.301H131.91V156ZM141.217 148.887H141.899V156H141.351L141.217 154.681C140.832 155.57 139.824 156.178 138.639 156.178C136.935 156.178 136.06 155.007 136.06 153.273V148.872H136.757V153.096C136.757 154.918 137.616 155.555 138.802 155.555C140.299 155.555 141.217 154.518 141.217 152.681V148.887ZM147.368 156H146.686V149.48H145.249V148.887H146.686V146.635H147.368V148.887H148.805V149.48H147.368V156ZM152.499 146.709C152.158 146.709 151.877 146.427 151.877 146.101C151.877 145.76 152.158 145.464 152.499 145.464C152.825 145.464 153.121 145.76 153.121 146.101C153.121 146.427 152.825 146.709 152.499 146.709ZM152.158 156V148.887H152.84V156H152.158ZM156.489 152.444C156.489 150.295 157.986 148.709 160.016 148.709C162.046 148.709 163.543 150.295 163.543 152.444C163.543 154.592 162.046 156.178 160.016 156.178C157.986 156.178 156.489 154.592 156.489 152.444ZM157.185 152.444C157.185 154.266 158.356 155.555 160.016 155.555C161.675 155.555 162.846 154.266 162.846 152.444C162.846 150.621 161.675 149.332 160.016 149.332C158.356 149.332 157.185 150.621 157.185 152.444ZM167.865 156H167.183V148.887H167.731L167.879 150.265C168.354 149.272 169.332 148.709 170.399 148.709C172.414 148.709 173.17 149.895 173.17 151.673V156H172.488V151.806C172.488 149.924 171.673 149.332 170.384 149.332C168.769 149.332 167.865 150.532 167.865 152.325V156ZM176.533 154.074H177.2C177.2 154.992 177.881 155.555 178.978 155.555C180.178 155.555 180.919 155.022 180.919 154.148C180.919 153.451 180.578 153.096 179.66 152.858L178.459 152.547C177.244 152.236 176.666 151.554 176.666 150.68C176.666 149.495 177.644 148.709 179.111 148.709C180.578 148.709 181.497 149.495 181.542 150.784H180.875C180.83 149.865 180.178 149.332 179.111 149.332C177.97 149.332 177.348 149.806 177.348 150.68C177.348 151.288 177.763 151.717 178.622 151.94L179.808 152.251C181.053 152.577 181.601 153.155 181.601 154.148C181.601 155.363 180.563 156.178 179.008 156.178C177.496 156.178 176.533 155.363 176.533 154.074Z" fill="black"/>
<path d="M20.1338 139.198H26.4079V90H20.1338V139.198Z" fill="black"/>
<path fill-rule="evenodd" clip-rule="evenodd" d="M69.3406 121.656C69.3406 132.549 61.4894 140.047 50.6674 140.047C41.2453 140.047 34.2785 134.577 34.2785 125.083C34.2785 114.19 42.1298 106.693 52.9518 106.693C62.3739 106.693 69.3406 112.163 69.3406 121.656ZM40.6234 121.656C40.6234 115.291 44.7259 110.976 50.6674 110.976C57.4649 110.976 62.9957 118.633 62.9957 125.083C62.9957 131.449 58.8933 135.764 52.9518 135.764C46.1542 135.764 40.6234 128.107 40.6234 121.656Z" fill="black"/>
<path fill-rule="evenodd" clip-rule="evenodd" d="M100.725 133.186C98.532 136.439 94.2173 138.491 89.1953 138.491C80.3502 138.491 75.0699 132.919 75.0699 124.376C75.0699 114.19 81.7187 106.551 91.692 106.551C99.3223 106.551 102.728 115.913 103.575 107.683H109.283V137.43C109.283 149.1 102.281 156.386 90.9636 156.386C83.1154 156.386 76.2033 152.853 75.2821 144.747H82.808C85.3425 148.764 87.9666 151.961 93.2481 151.961C102.67 151.961 103.009 143.731 103.009 136.612C103.009 132.015 101.886 131.462 100.725 133.186ZM81.4855 120.737C81.4855 115.008 85.1636 110.693 90.8929 110.693C97.4686 110.693 102.797 117.88 102.797 124.164C102.797 130.247 99.1188 134.42 93.1773 134.42C86.7448 134.42 81.4855 126.781 81.4855 120.737Z" fill="black"/>
<path d="M118.178 96.3943C119.014 96.938 120.021 97.2539 121.114 97.2539C123.943 97.2539 126.277 94.9197 126.277 92.0197C126.277 91.7053 126.25 91.3983 126.197 91.1009C125.388 90.5816 124.426 90.2829 123.398 90.2829C120.427 90.2829 118.093 92.5464 118.093 95.4464C118.093 95.7702 118.122 96.0871 118.178 96.3943Z" fill="black"/>
<path d="M125.428 107.683V139.198H119.083V107.683H125.428Z" fill="black"/>
<path d="M159.1 128.659C159.1 135.732 153.088 140.118 144.459 140.118C138.926 140.118 132.526 138.329 132.526 132.015H139.913C142.45 134.327 142.514 136.966 147.026 136.966C151.058 136.966 153.25 135.339 153.25 132.793C153.25 130.545 148.709 126.021 146.934 125.617L140.639 124.132C136.567 123.217 133.587 121.996 133.587 117.585C133.587 110.724 139.387 106.622 147.45 106.622C152.83 106.622 158.331 108.596 158.393 114.513H151.137C149.012 112.374 148.698 109.632 144.812 109.632C141.417 109.632 139.437 111.188 139.437 113.805C139.437 116.293 144.381 120.748 146.248 121.193L152.543 122.678C156.292 123.536 159.1 124.581 159.1 128.659Z" fill="black"/>
<path d="M169.794 139.198H176.139V111.471H182.929V107.683H176.139V104.256V96.7903H169.794V107.683H163.074V111.471H169.794V114.898V139.198Z" fill="black"/>
<path d="M188.258 96.3943C189.094 96.938 190.101 97.2539 191.194 97.2539C194.023 97.2539 196.357 94.9197 196.357 92.0197C196.357 91.7053 196.33 91.3983 196.277 91.1009C195.468 90.5816 194.506 90.2829 193.478 90.2829C190.507 90.2829 188.173 92.5464 188.173 95.4464C188.173 95.7702 188.202 96.087 188.258 96.3943Z" fill="black"/>
<path d="M195.508 107.683V139.198H189.163V107.683H195.508Z" fill="black"/>
<path d="M234.642 129.822C232.358 136.058 226.277 140.118 218.5 140.118C208.93 140.118 203.242 134.374 203.242 125.083C203.242 114.261 210.386 106.622 220.713 106.622C227.704 106.622 234.593 109.491 235.405 116.917H227.369C224.751 113.842 223.572 110.905 218.782 110.905C213.265 110.905 209.587 115.078 209.587 121.656C209.587 127.671 214.088 135.764 220.784 135.764C225.099 135.764 228.14 133.642 229.06 129.822H234.642Z" fill="black"/>
</svg>
