<svg width="256" height="256" viewBox="0 0 256 256" fill="none" xmlns="http://www.w3.org/2000/svg">
<path d="M100 166C102.833 168.833 112.5 173.1 126.5 167.5C144 160.5 148 161 159.5 162.5" stroke="black" stroke-width="2"/>
<path d="M90 109.5C94.5 107.167 102 102.239 115 104.5C128 106.761 137.5 109.5 160.5 102.5" stroke="black" stroke-width="2"/>
<path d="M130 88C127.667 89.6667 123.7 93.2 126.5 94C130 95 138 92 135 95C132 98 123 98.5 129 100.5C135 102.5 138 101 148.5 93" stroke="black" stroke-width="2"/>
<path d="M90 154C96.5 158.5 110.833 162 119.5 158C126 155 132 152.5 140.5 155C151.226 158.155 152 160 166 154" stroke="black" stroke-width="2"/>
<path d="M116.708 150.843C115.292 147.744 108.565 149.122 106.795 150.843C104.316 153.253 107.998 155.25 112.813 154.975C117.062 154.731 117.427 152.416 116.708 150.843Z" stroke="black" stroke-width="2"/>
<path fill-rule="evenodd" clip-rule="evenodd" d="M167.063 150C160.251 164.758 145.321 175 128 175C110.679 175 95.7492 164.758 88.9373 150H86.7444C93.6884 165.893 109.547 177 128 177C146.453 177 162.312 165.893 169.256 150H167.063ZM89.9244 112C97.1226 98.3246 111.472 89 128 89C144.528 89 158.877 98.3246 166.076 112H168.322C160.959 97.1828 145.669 87 128 87C110.331 87 95.0411 97.1828 87.6776 112H89.9244Z" fill="black"/>
<path d="M58.4878 141.899C52.4036 141.899 48.2987 137.721 48.2987 131.453V115.803H50.4611V131.453C50.4611 136.438 53.7231 139.81 58.4878 139.81C63.2892 139.81 66.5512 136.438 66.5512 131.453V115.803H68.7137V131.453C68.7137 137.721 64.6087 141.899 58.4878 141.899ZM84.1604 123.024C89.5115 123.024 93.25 126.909 93.25 132.406C93.25 137.904 89.5115 141.789 84.1604 141.789C80.935 141.789 78.2228 140.36 76.83 138.087V150.182H74.7409V123.353H76.6468L76.6834 126.945C78.0395 124.563 80.8251 123.024 84.1604 123.024ZM83.9771 139.847C88.1921 139.847 91.1608 136.878 91.1608 132.406C91.1608 127.935 88.1921 124.966 83.9771 124.966C79.7988 124.966 76.83 127.935 76.83 132.406C76.83 136.878 79.7988 139.847 83.9771 139.847ZM98.925 119.432C97.972 119.432 97.2757 118.735 97.2757 117.782C97.2757 116.866 97.972 116.17 98.925 116.17C99.9146 116.17 100.611 116.866 100.611 117.782C100.611 118.735 99.9146 119.432 98.925 119.432ZM97.8987 141.459V123.353H99.9879V141.459H97.8987ZM116.145 139.077L116.841 140.836C115.632 141.423 114.349 141.789 113.103 141.789C109.291 141.789 107.935 139.627 107.935 135.852V125.223H104.123V123.353H107.935V118.149L109.987 117.929V123.353H116.035V125.223H109.987V135.852C109.987 138.234 110.574 139.883 113.213 139.883C114.092 139.883 115.265 139.517 116.145 139.077ZM128.114 123.024C134.089 123.024 137.754 127.092 137.241 133.213H121.114C121.444 137.354 124.229 139.883 128.298 139.883C130.827 139.883 133.392 138.82 134.638 137.208L136.068 138.454C134.345 140.58 131.45 141.863 128.261 141.863C122.8 141.863 118.988 137.977 118.988 132.406C118.988 126.909 122.69 123.024 128.114 123.024ZM128.151 124.929C124.156 124.929 121.517 127.458 121.114 131.38H135.225C135.151 127.495 132.329 124.929 128.151 124.929ZM149.627 123.134C151.094 123.134 152.523 123.537 153.549 124.233L152.633 126.029C151.68 125.443 150.654 125.149 149.554 125.149C146.182 125.149 143.727 128.191 143.727 132.26V141.459H141.637V123.353H143.543L143.58 127.129C144.863 124.6 147.025 123.134 149.627 123.134ZM177.453 140.287L175.987 141.716L172.285 138.087C170.012 140.543 167.044 141.826 163.928 141.826C159.127 141.826 155.755 139.297 155.755 135.448C155.755 132.333 158.064 129.584 161.766 127.678C159.603 125.406 158.724 123.573 158.724 121.448C158.724 117.929 161.692 115.437 165.761 115.437C169.279 115.437 171.772 117.709 171.772 120.898C171.772 124.343 169.023 126.322 165.174 128.118L172.138 135.045C173.494 132.956 174.337 130.427 174.447 128.631L176.39 128.961C176.133 131.673 175.107 134.276 173.604 136.475L177.453 140.287ZM165.688 117.416C162.865 117.416 160.886 119.102 160.886 121.521C160.886 123.134 161.509 124.416 163.818 126.799C167.227 125.149 169.646 123.647 169.646 120.971C169.646 118.845 168.033 117.416 165.688 117.416ZM163.928 139.847C166.494 139.847 168.986 138.784 170.929 136.695L163.122 129.034C159.97 130.501 157.917 132.81 157.917 135.302C157.917 138.087 160.336 139.847 163.928 139.847ZM205.53 115.803H207.729V141.459H205.567V119.358L194.938 133.799H194.425L183.796 119.358V141.459H181.633V115.803H183.832L194.681 130.574L205.53 115.803Z" fill="black"/>
</svg>
