<svg width="37" height="29" viewBox="0 0 37 29" fill="none" xmlns="http://www.w3.org/2000/svg">
<path d="M1 7.04736L11.5971 13.968C14.0918 15.5972 15.3393 16.4119 16.6874 16.7284C17.8789 17.0081 19.1211 17.0081 20.3126 16.7284C21.6607 16.4119 22.9083 15.5972 25.403 13.968L36 7.04736M7.22222 28H29.7778C31.9558 28 33.0448 28 33.8767 27.5848C34.6084 27.2196 35.2034 26.6367 35.5761 25.92C36 25.1051 36 24.0382 36 21.9047V14.6665V7.42832C36 5.29477 36 4.22798 35.5761 3.41307C35.2034 2.69624 34.6084 2.11346 33.8767 1.74823C33.0448 1.33301 31.9558 1.33301 29.7778 1.33301H7.22222C5.04425 1.33301 3.95524 1.33301 3.12337 1.74823C2.39162 2.11346 1.7967 2.69624 1.42387 3.41307C1 4.22798 1 5.29475 1 7.42832V21.9047C1 24.0382 1 25.1051 1.42387 25.92C1.7967 26.6367 2.39162 27.2196 3.12337 27.5848C3.95524 28 5.04423 28 7.22222 28Z" stroke="#050505" stroke-width="2" stroke-linecap="round" stroke-linejoin="round"/>
</svg>
