<svg width="50" height="48" viewBox="0 0 50 48" fill="none" xmlns="http://www.w3.org/2000/svg">
<path d="M47.7458 24.7052C47.6863 21.873 47.1161 19.1241 46.0504 16.5283C47.86 14.028 50 10.3546 50 6.96459C50 3.12434 46.8843 0 43.0544 0C39.7651 0 37.0047 2.30531 36.2903 5.38861C34.8699 4.5734 33.367 3.91477 31.8087 3.42574C29.6121 2.73754 27.3246 2.38854 25.0098 2.38854C20.4957 2.38854 16.134 3.71178 12.3963 6.21508C12.0599 6.4404 11.9693 6.89643 12.194 7.23368C12.3353 7.44568 12.5673 7.56025 12.8038 7.56025C12.9437 7.56025 13.085 7.5201 13.21 7.43648C16.7061 5.09494 20.7863 3.85739 25.0099 3.85739C26.971 3.85739 28.9105 4.12579 30.7846 4.65409L30.4378 7.36137C30.2656 8.70419 30.8113 10.0667 31.8617 10.9173L34.0962 12.7266L36.1327 20.8951C36.5948 22.7485 38.1106 24.1303 39.9945 24.4155L46.2849 25.3674C46.2479 30.0561 44.7261 34.4899 41.8763 38.1998C39.0811 41.8386 35.1264 44.5181 30.7405 45.7446C27.5478 46.6413 24.1222 46.7684 20.863 46.1215L19.9359 41.437C19.9194 41.3533 19.8885 41.2732 19.8445 41.2003L15.3738 33.7765C15.2806 33.6217 15.1338 33.5069 14.9613 33.454L4.32256 30.1864C3.81582 28.0742 3.63496 25.8836 3.78447 23.7164C5.11074 25.5817 6.30225 26.8527 6.41436 26.9711C6.55264 27.1171 6.74463 27.1998 6.94551 27.1998C7.14639 27.1998 7.33838 27.1171 7.47666 26.9711C7.6958 26.7396 12.0384 22.1062 13.4508 17.2323L18.8203 15.9144C19.1762 15.8272 19.5439 15.8847 19.8561 16.0763C20.1686 16.2682 20.3871 16.5708 20.4714 16.9285L21.4422 21.0518C21.7718 22.4491 21.6288 23.9392 21.0396 25.2479L17.6501 32.7795C17.5815 32.9318 17.5669 33.1032 17.6085 33.265L18.5606 36.9656C18.6593 37.349 19.0435 37.585 19.4287 37.4991L26.3336 35.961C27.6652 35.6645 29.0352 36.2504 29.7427 37.4191C29.8926 37.6667 30.0084 37.9346 30.0869 38.2157C30.1648 38.4941 30.2043 38.7828 30.2043 39.074V42.9562C30.2043 43.3618 30.5321 43.6907 30.9367 43.6907C31.3413 43.6907 31.6691 43.3618 31.6691 42.9562V39.074C31.6691 38.6487 31.6113 38.2263 31.4973 37.8192C31.3829 37.4097 31.2139 37.0187 30.9947 36.6568C29.9613 34.9498 27.9603 34.0937 26.0159 34.5271L19.8021 35.9112L19.0911 33.1482L22.3745 25.8521C23.0959 24.2496 23.271 22.4247 22.8675 20.714L21.8967 16.5906C21.7218 15.8489 21.2686 15.2214 20.6206 14.8235C19.9729 14.4258 19.2099 14.3066 18.4719 14.4875L13.7986 15.6345C13.8579 15.2148 13.8908 14.7966 13.8908 14.3827C13.8908 10.5424 10.775 7.41807 6.94522 7.41807C3.11543 7.41807 0 10.5425 0 14.3829C0 16.8953 1.17549 19.5635 2.5208 21.7945C2.06504 24.8336 2.22803 27.9753 3.00059 30.9511C4.05088 34.998 6.20088 38.6808 9.21826 41.6014C14.8967 47.1873 23.5028 49.3464 31.1339 47.1593C35.8226 45.8482 40.0497 42.9846 43.0367 39.096C46.2195 34.9582 47.8583 29.9416 47.7458 24.7052ZM6.94561 8.88711C9.96768 8.88711 12.4264 11.3525 12.4264 14.3829C12.4264 15.0455 12.3282 15.7279 12.1569 16.4141C12.1525 16.4289 12.1487 16.4438 12.1452 16.459C11.2085 20.145 8.18037 23.9314 6.94551 25.3634C5.47549 23.6585 1.46484 18.6187 1.46484 14.3829C1.46484 11.3524 3.92354 8.88711 6.94561 8.88711ZM4.79678 31.8682L14.2645 34.776L18.5239 41.8491L19.2957 45.7491C12.5789 43.9301 6.92197 38.5099 4.79678 31.8682ZM43.0544 1.46885C46.0765 1.46885 48.5352 3.93426 48.5352 6.96459C48.5352 11.2014 44.5229 16.2424 43.0536 17.946C42.4786 17.2809 41.5154 16.1064 40.5567 14.6681C38.6053 11.74 37.5736 9.0762 37.5736 6.96459C37.5736 3.93426 40.0323 1.46885 43.0544 1.46885ZM37.5538 20.5388L35.4577 12.1316C35.419 11.9767 35.3312 11.8386 35.2073 11.7383L32.7819 9.77439C32.1244 9.24189 31.7829 8.38898 31.8905 7.5484L32.2031 5.10855C33.5629 5.59856 34.8722 6.2283 36.1093 6.98838C36.1262 12.7305 42.2618 19.2766 42.5234 19.5528C42.6617 19.6988 42.8537 19.7815 43.0545 19.7815C43.2553 19.7815 43.4473 19.6988 43.5855 19.5528C43.6616 19.4725 44.2343 18.8619 45.0082 17.896C45.7065 19.8164 46.1213 21.8198 46.2452 23.8757L40.213 22.9629C38.9158 22.7665 37.872 21.8151 37.5538 20.5388Z" fill="#b0ffd4"/>
<path d="M6.94561 18.7006C4.57129 18.7006 2.63955 16.7637 2.63955 14.3828C2.63955 12.0018 4.57129 10.0649 6.94561 10.0649C9.31992 10.0649 11.2516 12.0018 11.2516 14.3828C11.2516 16.7637 9.31992 18.7006 6.94561 18.7006ZM6.94561 11.5339C5.379 11.5339 4.10439 12.8119 4.10439 14.3829C4.10439 15.9538 5.379 17.2318 6.94561 17.2318C8.51221 17.2318 9.78672 15.9538 9.78672 14.3829C9.78672 12.8119 8.51221 11.5339 6.94561 11.5339Z" fill="#b0ffd4"/>
<path d="M43.0544 11.2824C45.4287 11.2824 47.3605 9.34549 47.3605 6.96459C47.3605 4.58368 45.4288 2.64676 43.0544 2.64676C40.68 2.64676 38.7483 4.58368 38.7483 6.96459C38.7483 9.34549 40.68 11.2824 43.0544 11.2824ZM43.0544 4.11561C44.621 4.11561 45.8956 5.39361 45.8956 6.96459C45.8956 8.53557 44.621 9.81356 43.0544 9.81356C41.4878 9.81356 40.2132 8.53557 40.2132 6.96459C40.2132 5.39361 41.4878 4.11561 43.0544 4.11561Z" fill="#b0ffd4"/>
<path d="M30.4662 13.0102C30.3138 12.0507 29.8785 11.1732 29.2072 10.4726L27.2471 8.42677C26.9667 8.13428 26.5031 8.12497 26.2115 8.40601C25.9198 8.68705 25.9105 9.15199 26.1908 9.44439L28.151 11.4901C28.6141 11.9735 28.9144 12.579 29.0195 13.241L29.2268 14.5465C29.2842 14.9079 29.5954 15.1655 29.9492 15.1655C29.9875 15.1655 30.0262 15.1625 30.0652 15.1563C30.4647 15.0926 30.737 14.7162 30.6735 14.3156L30.4662 13.0102Z" fill="#b0ffd4"/>
<path d="M32.7496 36.1835C32.8308 37.2153 33.6883 38.0052 34.7141 38.0052C34.7326 38.0052 34.7514 38.005 34.7701 38.0045L35.8154 37.9753C36.357 37.9602 36.8559 37.7305 37.2202 37.3283C37.5846 36.9261 37.7647 36.4062 37.7278 35.8642L37.507 32.621C37.4403 31.6411 37.0036 30.7385 36.277 30.0794L34.7615 28.7048C34.3025 28.2886 33.6476 28.1968 33.0925 28.4704C32.5373 28.7441 32.2101 29.3205 32.2586 29.939V29.9391L32.7496 36.1835ZM33.7391 29.7885C33.7608 29.7779 33.7666 29.7828 33.779 29.7941L35.2945 31.1687C35.7382 31.5712 36.005 32.1225 36.0457 32.721L36.2665 35.9643C36.276 36.1036 36.2296 36.2372 36.1359 36.3406C36.0423 36.444 35.9142 36.5031 35.7748 36.507L34.7294 36.5362C34.4575 36.5446 34.2312 36.3381 34.21 36.068L33.7191 29.8237C33.7179 29.8069 33.7173 29.7993 33.7391 29.7885Z" fill="#b0ffd4"/>
<path d="M30.5996 19.0023C31.0041 19.0023 31.332 18.6735 31.332 18.2679C31.332 17.8622 31.0041 17.5334 30.5996 17.5334C30.1951 17.5334 29.8672 17.8622 29.8672 18.2679C29.8672 18.6735 30.1951 19.0023 30.5996 19.0023Z" fill="#b0ffd4"/>
</svg>
