<svg width="21" height="21" viewBox="0 0 21 21" fill="none" xmlns="http://www.w3.org/2000/svg">
<path d="M20.3245 15.12C20.2881 15.0885 16.0958 12.0792 14.9562 12.2857C14.4095 12.383 14.0973 12.7554 13.4715 13.5002C13.3707 13.6206 13.1285 13.909 12.9402 14.1141C12.5443 13.985 12.1581 13.8278 11.7845 13.6437C9.85636 12.705 8.29849 11.1471 7.3598 9.219C7.17561 8.84549 7.0184 8.45927 6.8894 8.0633C7.0952 7.8743 7.3836 7.6321 7.5068 7.5285C8.2488 6.9055 8.6219 6.5933 8.7185 6.0459C8.9166 4.9119 5.915 0.7161 5.8835 0.6783C5.74724 0.483879 5.56948 0.322168 5.36307 0.20486C5.15666 0.0875514 4.92676 0.0175783 4.69 0C3.4734 0 0 4.5059 0 5.2647C0 5.3088 0.0637001 9.7916 5.5916 15.4147C11.2091 20.9363 15.6912 21 15.7353 21C16.4941 21 21 17.5266 21 16.31C20.9825 16.074 20.9129 15.8448 20.7961 15.639C20.6792 15.4333 20.5182 15.256 20.3245 15.12Z" fill="#050505"/>
<path d="M11.2 5.6C12.3136 5.60111 13.3812 6.04397 14.1686 6.83138C14.956 7.61879 15.3989 8.68643 15.4 9.8C15.4 9.98565 15.4737 10.1637 15.605 10.295C15.7363 10.4262 15.9143 10.5 16.1 10.5C16.2857 10.5 16.4637 10.4262 16.595 10.295C16.7263 10.1637 16.8 9.98565 16.8 9.8C16.7983 8.3153 16.2078 6.89189 15.158 5.84204C14.1081 4.7922 12.6847 4.20167 11.2 4.2C11.0143 4.2 10.8363 4.27375 10.705 4.40503C10.5737 4.5363 10.5 4.71435 10.5 4.9C10.5 5.08565 10.5737 5.2637 10.705 5.39497C10.8363 5.52625 11.0143 5.6 11.2 5.6Z" fill="#050505"/>
<path d="M11.2 2.1C13.2414 2.10241 15.1986 2.91443 16.6421 4.35794C18.0856 5.80145 18.8976 7.75857 18.9 9.8C18.9 9.98565 18.9737 10.1637 19.105 10.295C19.2363 10.4262 19.4143 10.5 19.6 10.5C19.7857 10.5 19.9637 10.4262 20.095 10.295C20.2263 10.1637 20.3 9.98565 20.3 9.8C20.2972 7.38738 19.3376 5.07438 17.6316 3.3684C15.9256 1.66242 13.6126 0.702779 11.2 0.7C11.0143 0.7 10.8363 0.77375 10.705 0.905025C10.5737 1.0363 10.5 1.21435 10.5 1.4C10.5 1.58565 10.5737 1.7637 10.705 1.89497C10.8363 2.02625 11.0143 2.1 11.2 2.1Z" fill="#050505"/>
</svg>
