<svg width="274" height="140" viewBox="0 0 274 140" fill="none" xmlns="http://www.w3.org/2000/svg"><mask id="a" maskUnits="userSpaceOnUse" x="-69" y="-225" width="395" height="366"><path d="M223.377 79.297c59.284-1.495 102.309-52.57 102.309-121.448 0-68.557-45.493-122.259-103.555-122.259-22.921 0-27.599-3.56-50.087-20.678-7.142-5.433-8.094-6.249-17.616-13.204-26.349-19.193-61.061-26.036-84.768-26.036-39.735 0-75.737 19.627-101.376 55.273-24 33.364-37.22 78.431-37.22 126.904s13.22 93.536 37.22 126.904c25.639 35.641 61.64 55.273 101.376 55.273 32.761 0 70.044-13.28 94.992-33.831 1.135-.943 2.306-1.919 3.524-2.938 13.009-10.907 27.773-23.267 55.201-23.96z" fill="#fff"/></mask><g mask="url(#a)"><path fill="#000" d="M.002-126.426h274.737v435.562H.002z"/></g></svg>