<svg width="50" height="50" viewBox="0 0 50 50" fill="none" xmlns="http://www.w3.org/2000/svg">
<path d="M49.6747 41.2026L44.6612 37.833L45.4405 36.3381C45.5792 36.0721 45.543 35.7482 45.3488 35.5198C45.2891 35.4493 43.9322 33.8778 40.8403 32.2875C41.9462 29.8697 42.8364 27.2257 43.5012 24.377C45.502 15.8046 44.7805 8.44395 44.7487 8.13483C44.7132 7.78835 44.4405 7.51444 44.0955 7.47875C38.2679 6.87503 33.518 4.92325 30.5597 3.39238C27.3439 1.72814 25.4874 0.186087 25.4695 0.171083C25.1976 -0.0570275 24.802 -0.0570275 24.5303 0.171083C24.4572 0.232474 17.0922 6.31976 5.90415 7.47884C5.55913 7.51464 5.28648 7.78845 5.25093 8.13493C5.23667 8.2737 4.90689 11.5873 5.27837 16.363C5.30992 16.7678 5.66128 17.0708 6.06528 17.0388C6.4685 17.0072 6.76976 16.6533 6.73832 16.2485C6.46664 12.7552 6.58529 10.0214 6.66146 8.87369C12.4592 8.17622 17.1779 6.22198 20.1532 4.67768C22.5782 3.41905 24.2391 2.24506 24.9998 1.669C25.7604 2.24506 27.4215 3.41905 29.8464 4.67768C32.8218 6.22198 37.5403 8.17612 43.3379 8.87369C43.4638 10.7801 43.7036 17.0657 42.0754 24.0416C41.3701 27.0637 40.4042 29.8421 39.1908 32.3499C39.1568 32.4201 39.122 32.4894 39.0877 32.559C39.0128 32.711 38.9371 32.8621 38.8603 33.0122C38.8171 33.0967 38.7738 33.1811 38.73 33.2651C38.6485 33.4209 38.5658 33.5754 38.4824 33.729C38.4128 33.857 38.3423 33.984 38.2714 34.1106C38.2077 34.2241 38.1437 34.3374 38.0791 34.4496C38.0139 34.5624 37.9481 34.6745 37.8819 34.786C37.8342 34.8665 37.7857 34.9461 37.7374 35.0258C37.5811 35.2835 37.4223 35.5381 37.2599 35.7887C37.2479 35.8071 37.2364 35.8257 37.2245 35.844C37.1399 35.9739 37.0543 36.1021 36.9682 36.2299C36.9312 36.2848 36.8941 36.3395 36.8568 36.3939C36.3479 37.139 35.8115 37.8515 35.2484 38.5286C35.2452 38.5325 35.242 38.5364 35.2388 38.5404C35.1297 38.6714 35.0194 38.8007 34.9084 38.9292C34.8209 39.0301 34.7325 39.1298 34.6438 39.2292C34.6259 39.2492 34.6082 39.2696 34.5904 39.2895C34.4901 39.4011 34.389 39.5116 34.287 39.6213C34.2819 39.6269 34.2767 39.6326 34.2714 39.6382C31.6869 42.4133 28.5814 44.5557 24.9999 46.0295C21.4933 44.5853 17.5677 42.114 14.238 37.8906C14.2274 37.877 14.2168 37.8634 14.2061 37.8499C14.139 37.7644 14.0725 37.6777 14.006 37.5909C12.7915 35.9952 11.7136 34.2272 10.7879 32.307C10.7663 32.2621 10.7406 32.2206 10.7117 32.1823C9.03458 28.6776 7.73235 24.401 7.04447 19.1797C6.99144 18.7772 6.6224 18.4938 6.2226 18.5473C5.82173 18.6005 5.5397 18.9702 5.59272 19.3726C6.22387 24.1629 7.42161 28.4924 9.15958 32.2875C6.06733 33.878 4.71061 35.4495 4.65074 35.5199C4.4567 35.7483 4.42047 36.0722 4.55895 36.3382L5.33824 37.8331L0.324912 41.2027C0.112512 41.3455 -0.0104362 41.5892 0.000696486 41.8457C0.0118292 42.1022 0.155285 42.3342 0.379403 42.458L4.47555 44.7205V49.2646C4.47555 49.5285 4.61647 49.7722 4.84469 49.9031C4.95728 49.9676 5.08248 49.9999 5.20777 49.9999C5.33648 49.9999 5.46528 49.9658 5.58003 49.8977L13.7157 45.0744C13.7208 45.0713 13.7253 45.0679 13.7302 45.0647C13.7385 45.0595 13.7466 45.0541 13.7547 45.0487C13.7693 45.0388 13.7834 45.0284 13.797 45.0176C13.8037 45.0123 13.8104 45.0071 13.8169 45.0016C13.834 44.987 13.8503 44.9717 13.866 44.9558C13.8685 44.9532 13.8711 44.951 13.8736 44.9483C13.8925 44.9284 13.9101 44.9075 13.9265 44.8859C13.927 44.8852 13.9277 44.8846 13.9283 44.8838C13.9295 44.882 13.9305 44.8801 13.9318 44.8783C13.9486 44.8555 13.9638 44.8318 13.9778 44.8073C13.9807 44.8021 13.9838 44.797 13.9867 44.7918C14.0008 44.7655 14.0136 44.7387 14.0245 44.711C14.0263 44.7063 14.0278 44.7015 14.0295 44.6967C14.0383 44.6728 14.0459 44.6484 14.0522 44.6238C14.0539 44.6172 14.0557 44.6108 14.0572 44.6042C14.0637 44.5755 14.0687 44.5465 14.0718 44.5171C14.0722 44.5132 14.0723 44.5093 14.0726 44.5053C14.075 44.4788 14.0757 44.4522 14.0752 44.4255C14.0751 44.4194 14.075 44.4134 14.0748 44.4073C14.0734 44.3772 14.0706 44.347 14.0655 44.317C14.0651 44.3149 14.0645 44.3128 14.0641 44.3107C14.0592 44.2833 14.0524 44.2563 14.0443 44.2293C14.0421 44.2222 14.04 44.2153 14.0377 44.2083C14.0282 44.1796 14.0174 44.151 14.0041 44.1231L13.001 42.0211C13.6031 41.7198 14.3057 41.4108 15.1143 41.1197C17.8169 43.89 21.0311 46.0282 24.7295 47.5056C24.8165 47.5403 24.9082 47.5577 25.0001 47.5577C25.092 47.5577 25.1838 47.5403 25.2707 47.5056C28.9626 46.0307 32.1818 43.8906 34.8862 41.1199C35.6947 41.411 36.3973 41.7199 36.9992 42.0212L35.9962 44.1232C35.9828 44.1511 35.9721 44.1798 35.9625 44.2085C35.9602 44.2155 35.958 44.2224 35.956 44.2295C35.9479 44.2565 35.941 44.2836 35.9361 44.311C35.9357 44.313 35.9352 44.3151 35.9349 44.3172C35.9298 44.3472 35.927 44.3774 35.9256 44.4075C35.9253 44.4137 35.9253 44.4197 35.9252 44.4258C35.9247 44.4525 35.9254 44.4791 35.9277 44.5055C35.9281 44.5095 35.9281 44.5135 35.9285 44.5174C35.9315 44.5467 35.9366 44.5758 35.9432 44.6044C35.9446 44.6111 35.9465 44.6175 35.9482 44.6241C35.9545 44.6487 35.962 44.673 35.9708 44.6968C35.9726 44.7016 35.974 44.7065 35.9759 44.7113C35.9867 44.739 35.9994 44.7657 36.0136 44.7919C36.0164 44.7972 36.0195 44.8024 36.0226 44.8076C36.0365 44.8319 36.0517 44.8557 36.0684 44.8783C36.0697 44.8801 36.0706 44.8821 36.072 44.8839C36.0726 44.8846 36.0731 44.8853 36.0737 44.886C36.0901 44.9076 36.1077 44.9285 36.1267 44.9484C36.1291 44.9511 36.1317 44.9533 36.1343 44.9559C36.1498 44.9718 36.1662 44.9871 36.1834 45.0017C36.1898 45.0072 36.1966 45.0124 36.2032 45.0177C36.2169 45.0285 36.231 45.0389 36.2455 45.0488C36.2536 45.0542 36.2617 45.0597 36.2699 45.0648C36.2749 45.068 36.2794 45.0714 36.2845 45.0744L44.42 49.8978C44.5348 49.9659 44.6634 50 44.7923 50C44.9175 50 45.0428 49.9677 45.1554 49.9032C45.3836 49.7723 45.5245 49.5286 45.5245 49.2647V44.7205L49.6207 42.458C49.8447 42.3343 49.9882 42.1023 49.9994 41.8457C50.01 41.5892 49.8872 41.3454 49.6747 41.2026ZM5.94018 47.9763V44.2855C5.94008 44.0175 5.79468 43.7706 5.56069 43.6413L2.14022 41.752L6.02163 39.1435L8.59689 44.0836C8.61105 44.1107 8.62687 44.1367 8.64406 44.1615C8.6508 44.1712 8.65871 44.18 8.66583 44.1893C8.67716 44.2041 8.6883 44.2192 8.7007 44.2329C8.713 44.2466 8.72648 44.2591 8.73966 44.2718C8.74796 44.2798 8.75578 44.2882 8.76447 44.2957C8.78068 44.3099 8.79796 44.3228 8.81544 44.3356C8.82179 44.3402 8.82794 44.3451 8.83439 44.3495C8.85392 44.3629 8.87433 44.3748 8.89513 44.3863C8.90001 44.3889 8.9048 44.3918 8.90978 44.3943C8.93204 44.4059 8.95489 44.4161 8.97843 44.4253C8.98234 44.4269 8.98624 44.4285 8.99024 44.4299C9.01456 44.4391 9.03937 44.4468 9.06476 44.4534C9.06827 44.4543 9.07188 44.4551 9.0755 44.4559C9.09142 44.4597 9.10694 44.4647 9.12325 44.4674L11.248 44.8296L5.94018 47.9763ZM10.9081 43.28C10.9252 43.2674 10.9432 43.2546 10.9608 43.2418C10.9987 43.2145 11.0365 43.1872 11.0764 43.1591C11.1008 43.1419 11.1268 43.1242 11.152 43.1068C11.1929 43.0785 11.2333 43.0504 11.276 43.0215C11.3017 43.0041 11.3292 42.9862 11.3557 42.9685C11.4006 42.9386 11.4449 42.909 11.4918 42.8785C11.5086 42.8676 11.5267 42.8564 11.5438 42.8454C11.5966 42.8115 11.6498 42.7776 11.705 42.743C11.7092 42.7404 11.7137 42.7377 11.7179 42.7351L12.0726 43.4784L10.9081 43.28ZM11.678 41.0561C11.676 41.0573 11.6737 41.0579 11.6717 41.0591C11.6654 41.0625 11.6595 41.0659 11.6532 41.0695L11.653 41.0696C11.6506 41.0709 11.6482 41.0723 11.6457 41.0737C11.6146 41.091 11.5843 41.1081 11.5538 41.1254C11.4971 41.1573 11.4415 41.1892 11.3867 41.221C11.3541 41.2399 11.3214 41.2588 11.2894 41.2776C11.2858 41.2797 11.2823 41.2818 11.2787 41.284C11.2737 41.2869 11.2689 41.2898 11.264 41.2927C11.176 41.3447 11.0908 41.3961 11.0076 41.4472C10.9948 41.4551 10.9815 41.4631 10.9688 41.471C10.9183 41.5023 10.8692 41.5332 10.8205 41.564C10.81 41.5706 10.7999 41.5772 10.7895 41.5838C10.7883 41.5845 10.7871 41.5853 10.7858 41.5861C10.2228 41.9455 9.77959 42.2786 9.45069 42.5511L6.10346 36.1298C6.63656 35.6247 7.81975 34.6321 9.79844 33.6111C9.87432 33.7602 9.95107 33.9084 10.0288 34.0558C10.0683 34.1307 10.1086 34.2046 10.1485 34.279C10.2496 34.4673 10.3519 34.6544 10.456 34.8397C10.4791 34.881 10.5011 34.9234 10.5243 34.9644C11.3065 36.3448 12.1691 37.6322 13.108 38.8276C13.1297 38.8553 13.1513 38.8829 13.1731 38.9105C13.2494 39.0069 13.326 39.1028 13.4034 39.1979C13.4431 39.2469 13.4832 39.2954 13.5231 39.344C13.5912 39.4267 13.659 39.5095 13.7277 39.5912C13.8301 39.7132 13.9334 39.834 14.0375 39.9537C13.124 40.3112 12.3419 40.6888 11.678 41.0561ZM35.9627 39.9536C35.964 39.9517 35.9656 39.9497 35.9673 39.9479C36.0305 39.8754 36.0926 39.8017 36.1549 39.7286C36.1929 39.6839 36.2312 39.6399 36.2689 39.5951C36.3644 39.4818 36.4587 39.3675 36.5526 39.2525C36.5559 39.2486 36.5591 39.2448 36.5622 39.2409C37.0207 38.6787 37.4619 38.0958 37.8844 37.4913C37.9404 37.4111 37.9943 37.3286 38.0496 37.2477C38.1169 37.1494 38.1841 37.0512 38.2503 36.9518C38.3246 36.8404 38.3982 36.7283 38.4713 36.6155C38.5303 36.5247 38.5885 36.4331 38.6466 36.3414C38.7434 36.1887 38.8392 36.0353 38.934 35.8802C38.9981 35.7752 39.0617 35.6697 39.1248 35.5636C39.1988 35.4393 39.2722 35.3146 39.3448 35.1887C39.4264 35.0474 39.5071 34.9053 39.587 34.7622C39.6308 34.6835 39.675 34.605 39.7183 34.5257C39.8229 34.3347 39.9256 34.1419 40.0271 33.9479C40.0616 33.8819 40.0958 33.8157 40.1299 33.7494C40.1537 33.7033 40.1779 33.6576 40.2014 33.6113C42.1661 34.6266 43.358 35.6248 43.8955 36.1316L40.549 42.5511C40.22 42.2786 39.7768 41.9454 39.2135 41.586C39.2124 41.5852 39.2113 41.5845 39.2101 41.5838C39.1999 41.5772 39.1896 41.5706 39.1793 41.564C39.1306 41.5332 39.0815 41.5023 39.0311 41.4711C39.0152 41.4613 38.9985 41.4512 38.9824 41.4414C38.9023 41.3921 38.8204 41.3427 38.7358 41.2927C38.7308 41.2897 38.726 41.2868 38.7211 41.284C38.7175 41.2818 38.7139 41.2797 38.7103 41.2776C38.6784 41.2588 38.6456 41.2399 38.6131 41.221C38.5582 41.1892 38.5026 41.1574 38.446 41.1254C38.4155 41.1082 38.385 41.091 38.3541 41.0737C38.3516 41.0723 38.3493 41.0709 38.3468 41.0696L38.3467 41.0695C38.3404 41.066 38.3344 41.0626 38.3282 41.0591C38.3261 41.0579 38.3239 41.0572 38.3219 41.056C37.6582 40.6889 36.8762 40.3112 35.9627 39.9536ZM38.1375 43.0384L38.2822 42.7353C38.2865 42.7379 38.291 42.7407 38.2953 42.7433C38.3504 42.7777 38.4032 42.8115 38.4556 42.8452C38.4729 42.8563 38.4914 42.8677 38.5085 42.8788C38.5555 42.9093 38.6 42.9391 38.6449 42.9691C38.6712 42.9865 38.6985 43.0044 38.7241 43.0217C38.7669 43.0506 38.8074 43.0788 38.8483 43.1072C38.8735 43.1246 38.8995 43.1423 38.9239 43.1595C38.963 43.1871 39.0001 43.2138 39.0373 43.2406C39.0556 43.2539 39.0744 43.2673 39.0923 43.2804L37.9279 43.4789L38.1375 43.0384ZM44.4391 43.6413C44.2052 43.7705 44.0597 44.0175 44.0597 44.2856V47.9764L38.7519 44.8295L40.8767 44.4673C40.8844 44.466 40.8917 44.4634 40.8994 44.4618C40.9174 44.4581 40.9353 44.4539 40.953 44.4489C40.9658 44.4452 40.9785 44.4413 40.991 44.437C41.008 44.4311 41.0247 44.4246 41.0411 44.4175C41.0533 44.4123 41.0654 44.407 41.0773 44.4011C41.0934 44.3932 41.1089 44.3843 41.1244 44.3752C41.1356 44.3686 41.1468 44.3623 41.1576 44.3551C41.173 44.3448 41.1876 44.3335 41.2023 44.3222C41.212 44.3146 41.2219 44.3075 41.2311 44.2995C41.2463 44.2864 41.2605 44.272 41.2747 44.2576C41.2822 44.25 41.2902 44.2429 41.2973 44.2349C41.3138 44.2165 41.329 44.1968 41.3437 44.1767C41.3474 44.1716 41.3517 44.1671 41.3552 44.1619C41.3726 44.1369 41.3885 44.1106 41.4028 44.0833L43.9781 39.1432L47.8594 41.7517L44.4391 43.6413Z" fill="#b0ffd4"/>
<path d="M40.2177 11.8434C40.1822 11.497 39.9095 11.2231 39.5645 11.1873C31.1176 10.3123 25.5245 5.70623 25.4696 5.66024C25.1981 5.43242 24.8028 5.43242 24.5309 5.65985C24.4754 5.70633 18.8823 10.3124 10.4353 11.1873C10.0903 11.2231 9.81768 11.497 9.78213 11.8434C9.76817 11.9798 9.44571 15.2328 9.94873 19.6746C10.4148 23.7893 11.7137 29.723 15.2544 34.624C15.3976 34.8222 15.6211 34.9276 15.8476 34.9276C15.9966 34.9276 16.1471 34.882 16.277 34.7873C16.6042 34.5488 16.6772 34.089 16.4396 33.7603C13.0932 29.1282 11.8562 23.4726 11.4077 19.5439C11.0399 16.3224 11.1273 13.7007 11.1951 12.5804C18.4445 11.6752 23.4832 8.29145 24.9998 7.156C26.5165 8.29155 31.5547 11.6755 38.8051 12.5804C38.8551 13.3991 38.9158 15.0203 38.7996 17.0953C38.7769 17.5008 39.0858 17.8478 39.4895 17.8706C39.8944 17.8926 40.2391 17.5835 40.2617 17.1779C40.4373 14.0407 40.2268 11.9318 40.2177 11.8434Z" fill="#b0ffd4"/>
<path d="M39.3526 19.3869C38.9518 19.3359 38.5851 19.621 38.5344 20.0239C36.9046 32.9563 30.3365 38.3197 24.9996 40.5395C22.4207 39.4679 20.1591 37.9298 18.2742 35.965C17.9939 35.6726 17.5302 35.6637 17.239 35.9455C16.9478 36.2273 16.9391 36.6928 17.2196 36.9853C19.3159 39.1704 21.8424 40.863 24.7292 42.0162C24.8162 42.051 24.9079 42.0683 24.9998 42.0683C25.0917 42.0683 25.1835 42.051 25.2704 42.0162C29.9909 40.1305 33.6854 36.8472 36.2512 32.2576C38.1509 28.8596 39.4077 24.8058 39.9871 20.2086C40.0378 19.8058 39.7537 19.4379 39.3526 19.3869Z" fill="#b0ffd4"/>
<path d="M33.187 17.6018C32.187 16.5977 30.5602 16.5979 29.5602 17.6019L23.0387 24.1511L20.6846 21.7869C19.6847 20.7828 18.0579 20.7829 17.0579 21.787C16.0581 22.7912 16.0581 24.425 17.0579 25.4291L21.2256 29.6143C21.7097 30.1008 22.3538 30.3685 23.0387 30.3685C23.7239 30.3685 24.3678 30.1006 24.8521 29.6143L33.187 21.244C34.1868 20.2399 34.1868 18.606 33.187 17.6018ZM32.1517 20.2042L23.8167 28.5744C23.609 28.783 23.3328 28.898 23.0389 28.898C22.7451 28.898 22.4688 28.783 22.2611 28.5744L18.0937 24.3893C17.6647 23.9585 17.6647 23.2577 18.0935 22.8268C18.3079 22.6115 18.5897 22.5038 18.8715 22.5038C19.1531 22.5038 19.4349 22.6116 19.6493 22.8268L22.5211 25.711C22.6585 25.849 22.8446 25.9263 23.0388 25.9263C23.233 25.9263 23.4192 25.8489 23.5566 25.711L30.5958 18.6418C31.0249 18.2109 31.7226 18.2108 32.1517 18.6416C32.5806 19.0725 32.5806 19.7734 32.1517 20.2042Z" fill="#b0ffd4"/>
</svg>
